<svg width="2465" height="485" viewBox="0 0 2465 485" fill="none" xmlns="http://www.w3.org/2000/svg">
<path d="M505.469 477H296.094V455.906H351.562L292.969 305.906H137.5L81.25 455.906H125C128.125 455.906 130.99 456.167 133.594 456.688C140.365 457.729 143.75 464.5 143.75 477H0V455.906H50L221.094 8.25H278.906L463.281 455.906H486.719C489.844 455.906 492.708 456.167 495.312 456.688C502.083 457.729 505.469 464.5 505.469 477ZM283.594 282.469L214.062 102.781L146.875 282.469H283.594ZM931.25 113.719C931.25 124.135 929.427 134.812 925.781 145.75C912.76 182.208 882.812 207.99 835.938 223.094C848.438 224.656 860.417 227 871.875 230.125C934.896 246.792 966.406 284.031 966.406 341.844C966.406 367.885 958.594 391.844 942.969 413.719C911.198 455.906 859.635 477 788.281 477H521.094V455.906H583.594V29.3438H521.094V8.25H774.219C802.865 8.25 828.385 11.375 850.781 17.625C904.427 33.25 931.25 65.2812 931.25 113.719ZM730.469 29.3438H692.969V212.156H736.719C746.094 212.156 754.948 211.115 763.281 209.031C799.74 198.615 817.969 168.927 817.969 119.969C817.448 60.5938 788.281 30.3854 730.469 29.3438ZM757.031 234.031H692.969V455.906H745.312C752.083 455.906 758.854 455.385 765.625 454.344C819.792 446.531 846.875 407.208 846.875 336.375C846.875 320.75 844.531 306.167 839.844 292.625C826.302 253.562 798.698 234.031 757.031 234.031ZM1263.28 0.4375C1322.14 0.4375 1373.44 16.3229 1417.19 48.0938C1478.12 92.8854 1508.59 158.25 1508.59 244.188C1508.59 315.021 1484.38 373.354 1435.94 419.188C1388.54 462.938 1330.21 484.812 1260.94 484.812C1200 484.812 1146.88 467.365 1101.56 432.469C1042.71 386.635 1013.28 322.833 1013.28 241.062C1013.28 169.708 1038.02 111.375 1087.5 66.0625C1135.42 22.3125 1194.01 0.4375 1263.28 0.4375ZM1263.28 462.156C1287.24 462.156 1307.29 456.948 1323.44 446.531C1365.1 419.969 1385.94 351.219 1385.94 240.281C1385.94 193.406 1382.03 154.083 1374.22 122.312C1357.55 56.1667 1319.79 23.0938 1260.94 23.0938C1243.23 23.0938 1227.34 26.2188 1213.28 32.4688C1161.72 54.3438 1135.94 124.917 1135.94 244.188C1135.94 306.688 1142.45 355.125 1155.47 389.5C1174.22 437.938 1210.16 462.156 1263.28 462.156ZM1543.75 29.3438V8.25H1778.12V29.3438H1715.62V298.875C1715.62 328.562 1717.97 354.083 1722.66 375.438C1735.16 432.729 1767.71 461.375 1820.31 461.375C1903.65 460.854 1945.57 406.688 1946.09 298.875V29.3438H1883.59V8.25H2037.5V29.3438H1975V294.188C1975 331.167 1970.83 362.677 1962.5 388.719C1940.62 452.781 1887.76 484.812 1803.91 484.812C1673.18 484.292 1607.29 424.396 1606.25 305.125V29.3438H1543.75ZM2387.5 477H2129.69V455.906H2203.91V29.3438H2190.62C2172.92 29.3438 2157.81 32.7292 2145.31 39.5C2127.08 49.9167 2112.24 71.7917 2100.78 105.125L2076.56 175.438H2053.12L2056.25 8.25H2460.94L2464.06 175.438H2440.62L2416.41 105.125C2412.76 95.2292 2409.38 86.6354 2406.25 79.3438C2390.62 46.0104 2364.06 29.3438 2326.56 29.3438H2313.28V455.906H2366.41C2377.34 456.948 2384.38 463.979 2387.5 477Z" fill="#353535" fill-opacity="0.31"/>
</svg>
