<svg width="1920" height="485" viewBox="0 0 1920 485" fill="none" xmlns="http://www.w3.org/2000/svg">
<path d="M195.469 477H-13.9062V455.906H41.5625L-17.0312 305.906H-172.5L-228.75 455.906H-185C-181.875 455.906 -179.01 456.167 -176.406 456.688C-169.635 457.729 -166.25 464.5 -166.25 477H-310V455.906H-260L-88.9062 8.25H-31.0938L153.281 455.906H176.719C179.844 455.906 182.708 456.167 185.312 456.688C192.083 457.729 195.469 464.5 195.469 477ZM-26.4062 282.469L-95.9375 102.781L-163.125 282.469H-26.4062ZM621.25 113.719C621.25 124.135 619.427 134.812 615.781 145.75C602.76 182.208 572.812 207.99 525.938 223.094C538.438 224.656 550.417 227 561.875 230.125C624.896 246.792 656.406 284.031 656.406 341.844C656.406 367.885 648.594 391.844 632.969 413.719C601.198 455.906 549.635 477 478.281 477H211.094V455.906H273.594V29.3438H211.094V8.25H464.219C492.865 8.25 518.385 11.375 540.781 17.625C594.427 33.25 621.25 65.2812 621.25 113.719ZM420.469 29.3438H382.969V212.156H426.719C436.094 212.156 444.948 211.115 453.281 209.031C489.74 198.615 507.969 168.927 507.969 119.969C507.448 60.5938 478.281 30.3854 420.469 29.3438ZM447.031 234.031H382.969V455.906H435.312C442.083 455.906 448.854 455.385 455.625 454.344C509.792 446.531 536.875 407.208 536.875 336.375C536.875 320.75 534.531 306.167 529.844 292.625C516.302 253.562 488.698 234.031 447.031 234.031ZM953.281 0.4375C1012.14 0.4375 1063.44 16.3229 1107.19 48.0938C1168.12 92.8854 1198.59 158.25 1198.59 244.188C1198.59 315.021 1174.38 373.354 1125.94 419.188C1078.54 462.938 1020.21 484.812 950.938 484.812C890 484.812 836.875 467.365 791.562 432.469C732.708 386.635 703.281 322.833 703.281 241.062C703.281 169.708 728.021 111.375 777.5 66.0625C825.417 22.3125 884.01 0.4375 953.281 0.4375ZM953.281 462.156C977.24 462.156 997.292 456.948 1013.44 446.531C1055.1 419.969 1075.94 351.219 1075.94 240.281C1075.94 193.406 1072.03 154.083 1064.22 122.312C1047.55 56.1667 1009.79 23.0938 950.938 23.0938C933.229 23.0938 917.344 26.2188 903.281 32.4688C851.719 54.3438 825.938 124.917 825.938 244.188C825.938 306.688 832.448 355.125 845.469 389.5C864.219 437.938 900.156 462.156 953.281 462.156ZM1233.75 29.3438V8.25H1468.12V29.3438H1405.62V298.875C1405.62 328.562 1407.97 354.083 1412.66 375.438C1425.16 432.729 1457.71 461.375 1510.31 461.375C1593.65 460.854 1635.57 406.688 1636.09 298.875V29.3438H1573.59V8.25H1727.5V29.3438H1665V294.188C1665 331.167 1660.83 362.677 1652.5 388.719C1630.62 452.781 1577.76 484.812 1493.91 484.812C1363.18 484.292 1297.29 424.396 1296.25 305.125V29.3438H1233.75ZM2077.5 477H1819.69V455.906H1893.91V29.3438H1880.62C1862.92 29.3438 1847.81 32.7292 1835.31 39.5C1817.08 49.9167 1802.24 71.7917 1790.78 105.125L1766.56 175.438H1743.12L1746.25 8.25H2150.94L2154.06 175.438H2130.62L2106.41 105.125C2102.76 95.2292 2099.38 86.6354 2096.25 79.3438C2080.62 46.0104 2054.06 29.3438 2016.56 29.3438H2003.28V455.906H2056.41C2067.34 456.948 2074.38 463.979 2077.5 477Z" fill="#353535" fill-opacity="0.31"/>
</svg>
