<svg width="153" height="136" viewBox="0 0 153 136" fill="none" xmlns="http://www.w3.org/2000/svg">
<mask id="path-1-outside-1_802_304" maskUnits="userSpaceOnUse" x="0" y="0" width="153" height="136" fill="black">
<rect fill="white" width="153" height="136"/>
<path d="M9.3125 3.35938L150.719 61.9531V74.4531L8.53125 133.047L2.67188 118.984L123.375 68.5938L2.67188 18.5938L9.3125 3.35938Z"/>
</mask>
<path d="M9.3125 3.35938L10.0781 1.51172L8.26384 0.759949L7.47911 2.56021L9.3125 3.35938ZM150.719 61.9531H152.719V60.617L151.484 60.1055L150.719 61.9531ZM150.719 74.4531L151.481 76.3023L152.719 75.7921V74.4531H150.719ZM8.53125 133.047L6.6851 133.816L7.45133 135.655L9.29326 134.896L8.53125 133.047ZM2.67188 118.984L1.90137 117.139L0.0570202 117.909L0.825721 119.754L2.67188 118.984ZM123.375 68.5938L124.146 70.4394L128.584 68.5866L124.14 66.746L123.375 68.5938ZM2.67188 18.5938L0.838483 17.7946L0.0245171 19.6619L1.90647 20.4415L2.67188 18.5938ZM9.3125 3.35938L8.54689 5.20703L149.953 63.8008L150.719 61.9531L151.484 60.1055L10.0781 1.51172L9.3125 3.35938ZM150.719 61.9531H148.719V74.4531H150.719H152.719V61.9531H150.719ZM150.719 74.4531L149.957 72.604L7.76924 131.198L8.53125 133.047L9.29326 134.896L151.481 76.3023L150.719 74.4531ZM8.53125 133.047L10.3774 132.278L4.51803 118.215L2.67188 118.984L0.825721 119.754L6.6851 133.816L8.53125 133.047ZM2.67188 118.984L3.44238 120.83L124.146 70.4394L123.375 68.5938L122.604 66.7481L1.90137 117.139L2.67188 118.984ZM123.375 68.5938L124.14 66.746L3.43728 16.746L2.67188 18.5938L1.90647 20.4415L122.61 70.4415L123.375 68.5938ZM2.67188 18.5938L4.50527 19.3929L11.1459 4.15854L9.3125 3.35938L7.47911 2.56021L0.838483 17.7946L2.67188 18.5938Z" fill="url(#paint0_linear_802_304)" fill-opacity="0.4" mask="url(#path-1-outside-1_802_304)"/>
<defs>
<linearGradient id="paint0_linear_802_304" x1="-35" y1="1.17296e-05" x2="248.5" y2="3.5" gradientUnits="userSpaceOnUse">
<stop offset="0.0632857" stop-color="#666666"/>
<stop offset="1"/>
</linearGradient>
</defs>
</svg>
