<svg width="369" height="358" viewBox="0 0 369 358" fill="none" xmlns="http://www.w3.org/2000/svg">
<mask id="path-1-outside-1_802_307" maskUnits="userSpaceOnUse" x="0" y="0" width="369" height="358" fill="black">
<rect fill="white" width="369" height="358"/>
<path d="M289.125 356.812C247.458 354.208 221.156 330.51 210.219 285.719C207.615 293.01 204.229 300.042 200.062 306.812C179.229 340.146 146.677 356.812 102.406 356.812C87.8229 356.812 74.5417 354.99 62.5625 351.344C21.9375 338.323 1.625 308.635 1.625 262.281C2.14583 194.052 69.3333 158.635 203.188 156.031V105.25C203.188 90.1458 202.146 77.125 200.062 66.1875C194.854 36.5 180.01 21.6562 155.531 21.6562C148.24 21.6562 141.729 22.9583 136 25.5625C127.146 30.7708 119.854 43.7917 114.125 64.625C112.042 71.9167 110.479 77.125 109.438 80.25C101.625 102.125 86.5208 113.062 64.125 113.062C58.9167 113.062 53.9688 112.281 49.2812 110.719C30.0104 105.51 20.375 92.75 20.375 72.4375C20.375 63.5833 22.7188 55.25 27.4062 47.4375C45.6354 16.7083 90.1667 1.34375 161 1.34375C179.229 1.34375 196.156 3.16667 211.781 6.8125C272.198 21.9167 302.406 62.0208 302.406 127.125V290.406C302.406 315.406 308.135 328.427 319.594 329.469C334.698 328.948 343.812 310.719 346.938 274.781L367.25 275.562C365.688 291.708 363.344 304.99 360.219 315.406C350.844 343.01 327.146 356.812 289.125 356.812ZM143.031 323.219C146.677 323.219 150.844 322.438 155.531 320.875C177.406 312.542 193.292 290.146 203.188 253.688V177.906C179.75 178.948 160.479 181.812 145.375 186.5C117.25 196.917 103.188 219.312 103.188 253.688C103.708 299 116.99 322.177 143.031 323.219Z"/>
</mask>
<path d="M289.125 356.812L289.063 357.811L289.094 357.812H289.125V356.812ZM210.219 285.719L211.19 285.482L210.399 282.241L209.277 285.382L210.219 285.719ZM200.062 306.812L200.911 307.343L200.914 307.337L200.062 306.812ZM62.5625 351.344L62.2573 352.296L62.2643 352.298L62.2713 352.3L62.5625 351.344ZM1.625 262.281L0.625 262.274V262.281H1.625ZM203.188 156.031L203.207 157.031L204.188 157.012V156.031H203.188ZM200.062 66.1875L199.078 66.3603L199.079 66.3675L199.08 66.3746L200.062 66.1875ZM136 25.5625L135.586 24.6521L135.538 24.6739L135.493 24.7006L136 25.5625ZM114.125 64.625L115.087 64.8997L115.089 64.8902L114.125 64.625ZM109.438 80.25L110.379 80.5863L110.383 80.5763L110.386 80.5662L109.438 80.25ZM49.2812 110.719L49.5975 109.77L49.5701 109.761L49.5422 109.753L49.2812 110.719ZM27.4062 47.4375L28.2638 47.952L28.2663 47.9477L27.4062 47.4375ZM211.781 6.8125L212.024 5.84235L212.016 5.84045L212.008 5.83865L211.781 6.8125ZM319.594 329.469L319.503 330.465L319.566 330.47L319.628 330.468L319.594 329.469ZM346.938 274.781L346.976 273.782L346.024 273.745L345.941 274.695L346.938 274.781ZM367.25 275.562L368.245 275.659L368.347 274.604L367.288 274.563L367.25 275.562ZM360.219 315.406L361.166 315.728L361.171 315.711L361.177 315.694L360.219 315.406ZM143.031 323.219L142.991 324.218L143.011 324.219H143.031V323.219ZM155.531 320.875L155.847 321.824L155.868 321.817L155.887 321.81L155.531 320.875ZM203.188 253.688L204.153 253.949L204.188 253.821V253.688H203.188ZM203.188 177.906H204.188V176.861L203.143 176.907L203.188 177.906ZM145.375 186.5L145.079 185.545L145.053 185.553L145.028 185.562L145.375 186.5ZM103.188 253.688H102.187L102.188 253.699L103.188 253.688ZM289.125 356.812L289.187 355.814C268.537 354.524 251.772 348.015 238.818 336.343C225.855 324.664 216.626 307.741 211.19 285.482L210.219 285.719L209.247 285.956C214.749 308.488 224.14 325.81 237.479 337.829C250.827 349.855 268.046 356.497 289.063 357.811L289.125 356.812ZM210.219 285.719L209.277 285.382C206.697 292.607 203.342 299.575 199.211 306.288L200.062 306.812L200.914 307.337C205.116 300.508 208.532 293.414 211.16 286.055L210.219 285.719ZM200.062 306.812L199.215 306.282C178.59 339.282 146.384 355.812 102.406 355.812V356.812V357.812C146.97 357.812 179.869 341.009 200.91 307.343L200.062 306.812ZM102.406 356.812V355.812C87.9057 355.812 74.7244 354 62.8537 350.387L62.5625 351.344L62.2713 352.3C74.3589 355.979 87.7401 357.812 102.406 357.812V356.812ZM62.5625 351.344L62.8677 350.391C42.726 343.936 27.6932 333.376 17.6847 318.748C7.67102 304.112 2.625 285.315 2.625 262.281H1.625H0.625C0.625 285.602 5.73523 304.825 16.0341 319.877C26.338 334.937 41.774 345.731 62.2573 352.296L62.5625 351.344ZM1.625 262.281L2.62497 262.289C2.75387 245.403 7.00468 230.588 15.3528 217.809C23.7046 205.024 36.1922 194.224 52.8726 185.431C86.2601 167.832 136.334 158.332 203.207 157.031L203.188 156.031L203.168 155.031C136.187 156.335 85.7399 165.845 51.9399 183.662C35.0266 192.578 22.2538 203.588 13.6784 216.715C5.09949 229.847 0.756545 245.045 0.62503 262.274L1.625 262.281ZM203.188 156.031H204.188V105.25H203.188H202.188V156.031H203.188ZM203.188 105.25H204.188C204.188 90.1036 203.143 77.0169 201.045 66.0004L200.062 66.1875L199.08 66.3746C201.148 77.2331 202.188 90.188 202.188 105.25H203.188ZM200.062 66.1875L201.047 66.0147C198.423 51.0532 193.349 39.6999 185.731 32.082C178.09 24.4414 167.988 20.6562 155.531 20.6562V21.6562V22.6562C167.553 22.6562 177.113 26.293 184.316 33.4962C191.542 40.722 196.494 51.6343 199.078 66.3603L200.062 66.1875ZM155.531 21.6562V20.6562C148.119 20.6562 141.464 21.9803 135.586 24.6521L136 25.5625L136.414 26.4729C141.994 23.9364 148.36 22.6562 155.531 22.6562V21.6562ZM136 25.5625L135.493 24.7006C130.859 27.4263 126.714 32.1464 123.018 38.7458C119.32 45.3504 116.038 53.8967 113.161 64.3598L114.125 64.625L115.089 64.8902C117.941 54.52 121.17 46.1392 124.763 39.723C128.359 33.3015 132.287 28.907 136.507 26.4244L136 25.5625ZM114.125 64.625L113.163 64.3503C111.08 71.6412 109.523 76.8312 108.489 79.9338L109.438 80.25L110.386 80.5662C111.435 77.4188 113.003 72.1922 115.087 64.8997L114.125 64.625ZM109.438 80.25L108.496 79.9137C104.641 90.708 99.0159 98.7253 91.6635 104.049C84.3141 109.371 75.1556 112.062 64.125 112.062V113.062V114.062C75.4902 114.062 85.0818 111.285 92.8365 105.669C100.588 100.056 106.422 91.667 110.379 80.5863L109.438 80.25ZM64.125 113.062V112.062C59.0183 112.062 54.1776 111.297 49.5975 109.77L49.2812 110.719L48.965 111.667C53.7599 113.266 58.815 114.062 64.125 114.062V113.062ZM49.2812 110.719L49.5422 109.753C40.0668 107.192 33.0532 102.802 28.3996 96.6396C23.7447 90.475 21.375 82.4357 21.375 72.4375H20.375H19.375C19.375 82.7518 21.823 91.2489 26.8035 97.8448C31.7854 104.442 39.2249 109.037 49.0203 111.684L49.2812 110.719ZM20.375 72.4375H21.375C21.375 63.77 23.6667 55.6138 28.2637 47.952L27.4062 47.4375L26.5488 46.923C21.7708 54.8862 19.375 63.3967 19.375 72.4375H20.375ZM27.4062 47.4375L28.2663 47.9477C37.2261 32.8441 52.6888 21.4424 74.8027 13.8125C96.9247 6.17978 125.644 2.34375 161 2.34375V1.34375V0.34375C125.522 0.34375 96.5597 4.19 74.1504 11.9219C51.7331 19.6565 35.8156 31.3018 26.5462 46.9273L27.4062 47.4375ZM161 1.34375V2.34375C179.163 2.34375 196.013 4.16006 211.554 7.78635L211.781 6.8125L212.008 5.83865C196.3 2.17328 179.296 0.34375 161 0.34375V1.34375ZM211.781 6.8125L211.539 7.78265C241.58 15.2929 264.015 28.9918 278.951 48.8204C293.891 68.6537 301.406 94.7254 301.406 127.125H302.406H303.406C303.406 94.4204 295.818 67.8879 280.549 47.6171C265.276 27.3416 242.399 13.4362 212.024 5.84235L211.781 6.8125ZM302.406 127.125H301.406V290.406H302.406H303.406V127.125H302.406ZM302.406 290.406H301.406C301.406 302.956 302.84 312.625 305.788 319.325C308.758 326.075 313.321 329.903 319.503 330.465L319.594 329.469L319.684 328.473C314.408 327.993 310.377 324.789 307.618 318.519C304.837 312.198 303.406 302.857 303.406 290.406H302.406ZM319.594 329.469L319.628 330.468C327.673 330.191 333.997 325.165 338.652 315.853C343.294 306.571 346.367 292.881 347.934 274.868L346.938 274.781L345.941 274.695C344.383 292.619 341.337 306.013 336.863 314.959C332.404 323.877 326.619 328.226 319.559 328.469L319.594 329.469ZM346.938 274.781L346.899 275.781L367.212 276.562L367.25 275.562L367.288 274.563L346.976 273.782L346.938 274.781ZM367.25 275.562L366.255 275.466C364.696 291.576 362.361 304.787 359.261 315.119L360.219 315.406L361.177 315.694C364.327 305.192 366.679 291.841 368.245 275.659L367.25 275.562ZM360.219 315.406L359.272 315.085C354.657 328.674 346.537 338.825 334.911 345.597C323.263 352.381 308.024 355.812 289.125 355.812V356.812V357.812C308.247 357.812 323.868 354.343 335.917 347.325C347.989 340.295 356.406 329.743 361.166 315.728L360.219 315.406ZM143.031 323.219V324.219C146.815 324.219 151.092 323.409 155.847 321.824L155.531 320.875L155.215 319.926C150.596 321.466 146.539 322.219 143.031 322.219V323.219ZM155.531 320.875L155.887 321.81C178.208 313.306 194.225 290.525 204.153 253.949L203.188 253.688L202.222 253.426C192.358 289.767 176.605 311.777 155.175 319.94L155.531 320.875ZM203.188 253.688H204.188V177.906H203.188H202.188V253.688H203.188ZM203.188 177.906L203.143 176.907C179.657 177.951 160.294 180.823 145.079 185.545L145.375 186.5L145.671 187.455C160.665 182.802 179.843 179.945 203.232 178.905L203.188 177.906ZM145.375 186.5L145.028 185.562C130.788 190.836 120.051 199.168 112.887 210.578C105.73 221.976 102.188 236.367 102.188 253.688H103.188H104.188C104.188 236.633 107.676 222.639 114.581 211.641C121.48 200.655 131.837 192.58 145.722 187.438L145.375 186.5ZM103.188 253.688L102.188 253.699C102.449 276.422 105.906 293.746 112.671 305.552C119.478 317.43 129.616 323.683 142.991 324.218L143.031 323.219L143.071 322.22C130.405 321.713 120.881 315.857 114.407 304.557C107.891 293.187 104.447 276.266 104.187 253.676L103.188 253.688Z" fill="#4B4B4B" fill-opacity="0.7" mask="url(#path-1-outside-1_802_307)"/>
</svg>
